<svg xmlns="http://www.w3.org/2000/svg" width="191.754" height="48" viewBox="0 0 191.754 48">
  <g id="logo-en" transform="translate(2047.557 2992.619)">
    <rect id="Rectangle_11" data-name="Rectangle 11" width="191.754" height="48" transform="translate(-2047.557 -2992.619)" fill="#f9a31a"/>
    <rect id="Rectangle_12" data-name="Rectangle 12" width="182.253" height="38.499" transform="translate(-2042.806 -2987.869)" fill="#fff"/>
    <path id="BUTEC" d="M-2026.886-3023.432q-2.056-1.471-2.056-4.866v-5.172q0-4.034,2.6-5.586,2.568-1.562,9.613-1.562t9.331,1.087q2.674,1.281,2.675,5.4h-4.086a13.087,13.087,0,0,1-1.844-.054q0-2.334-.795-2.865-.828-.5-4.844-.5-4.3,0-5.559.584-1.6.719-1.6,3.279v4.84q0,2.721,1.6,3.5a14.085,14.085,0,0,0,5.02.557q4.227,0,5.278-.557,1.227-.639,1.227-3.171h5.462q0,4.256-1.845,5.37-2.384,1.444-11.573,1.445Q-2024.458-3021.708-2026.886-3023.432Zm-74.371.776a4.5,4.5,0,0,1-3.107-4.616v-13.176h5.6v13.487a1.676,1.676,0,0,0,1.2,1.663,15.05,15.05,0,0,0,4.88.5,21.593,21.593,0,0,0,5.559-.415q1.305-.5,1.306-2.423v-12.816h5.568v13.291a4.314,4.314,0,0,1-2.859,4.392q-2.57,1.032-9.545,1.031Q-2098.837-3021.735-2101.257-3022.656Zm48.829.752v-18.543h19.916v3.061h-14.349v4.643h13.59v2.892h-13.59v4.922h14.392v3.026Zm-16.716,0v-15.484h-8.454v-3.06h22.52v3.06h-8.5v15.484Zm-62.413,0v-18.544h14.534q4.88,0,6.654,1.059a4,4,0,0,1,1.764,3.754,3.948,3.948,0,0,1-.865,2.831,5.75,5.75,0,0,1-3.261,1.309q2.9.251,3.985,1.392a4.328,4.328,0,0,1,.866,3.027,4.316,4.316,0,0,1-1.729,3.9q-1.951,1.276-6.91,1.275Zm5.533-3.026h8.308a7.528,7.528,0,0,0,3.325-.5,1.964,1.964,0,0,0,.9-1.921,2.428,2.428,0,0,0-.76-2.111,6.674,6.674,0,0,0-3.174-.5h-8.6Zm0-7.76h7.619a7,7,0,0,0,3.359-.556,2.18,2.18,0,0,0,.873-2.03q0-1.284-.617-1.642a8.326,8.326,0,0,0-3.536-.469h-7.7Z" transform="translate(116.458 62.544)" fill="#231f20" stroke="rgba(0,0,0,0)" stroke-width="1"/>
  </g>
</svg>
