<?xml version="1.0" encoding="UTF-8"?>
<svg id="Layer_1" data-name="Layer 1" xmlns="http://www.w3.org/2000/svg" xmlns:xlink="http://www.w3.org/1999/xlink" viewBox="0 0 933.7 804.4">
  <defs>
    <style>
      .cls-1, .cls-2, .cls-3, .cls-4, .cls-5, .cls-6, .cls-7, .cls-8, .cls-9, .cls-10, .cls-11 {
        stroke-linejoin: bevel;
      }

      .cls-1, .cls-12 {
        fill: none;
      }

      .cls-1, .cls-6, .cls-13 {
        stroke: #fff;
      }

      .cls-2 {
        stroke-width: 1px;
      }

      .cls-2, .cls-3, .cls-4, .cls-5, .cls-7, .cls-8, .cls-9, .cls-10, .cls-11 {
        fill: #fff;
        stroke: #e4e5e7;
      }

      .cls-12, .cls-14 {
        stroke-width: 0px;
      }

      .cls-4 {
        stroke-width: 1px;
      }

      .cls-5 {
        stroke-width: 1px;
      }

      .cls-6, .cls-13 {
        fill: #f9a31a;
      }

      .cls-7 {
        stroke-width: 1px;
      }

      .cls-8 {
        stroke-width: 1px;
      }

      .cls-15 {
        clip-path: url(#clippath);
      }

      .cls-9 {
        stroke-width: 1px;
      }

      .cls-14 {
        fill: #231f20;
      }

      .cls-10 {
        stroke-width: 1px;
      }

      .cls-11 {
        stroke-width: 1px;
      }
    </style>
    <clipPath id="clippath">
      <path class="cls-12" d="M-1.2-1h897.6c21.2,0,38.4,17.2,38.4,38.4v729.6c0,21.2-17.2,38.4-38.4,38.4H-1.2V-1Z"/>
    </clipPath>
  </defs>
  <g class="cls-15">
    <g id="Mask_Group_116" data-name="Mask Group 116">
      <g id="Group_388" data-name="Group 388">
        <g id="worldmap">
          <polygon class="cls-3" points="474.6 656.8 474.6 666.4 466.4 661.5 466.4 661.3 466.4 661.3 466.4 653.9 474.6 653.9 474.6 627.1 453.8 627.1 404.4 660.2 392.3 646.3 392.3 673.5 392.2 673.5 392.2 673.6 362.2 673.6 379.6 721.4 436.8 721.4 480.9 670.4 482.9 656.7 474.6 656.8 474.6 656.8 474.6 656.8"/>
          <polygon class="cls-3" points="456.3 685.1 456.3 685.1 456.3 685.3 456.3 685.3 450 691.9 439.3 691.9 439.3 682.1 439.3 682.1 439.3 682 447.6 676.6 456.3 676.6 456.3 685.1"/>
          <polygon class="cls-3" points="439.3 691.7 439.3 682.1 439.3 682.1 439.3 691.9 450 691.9 456.3 685.3 456.3 685.3 456.3 685.1 450 691.7 439.3 691.7"/>
          <polygon class="cls-3" points="341.4 167.6 352.4 170.5 341.5 160.5 341.4 167.6"/>
          <path class="cls-3" d="M879.2,235.5l-2.8-.7,2.1-9.6-4.4-1.5-9.3,14.9-51.4-19.5v-16.4c.1,0-12.7-4.4-12.7-4.4l-1.5-29.1-11.2-5.1h-10.3l-15.3,10.9-.4,9.3,9.3,5.3,4.4,18.2h0l-20.2,18.6h-12.9v13.7l9.7,3.7v11.8h0l-17.4,4.7,1.5,1.8,14.4,4.6-6.7,6.9,6.4,8.3,11.4,1.4,2-9.5h4.5l36.7,105.7,23.3-14.3,3.6-42.5,53.2-51.4-8.8-27.7,1.7-.8c-.2-2.4.2-4.9,1.2-7.1l-.1-.2Z"/>
          <polygon class="cls-3" points="641.3 87 641.3 87 641.3 87 666.3 104.1 687.1 100.1 702.4 120.2 717.1 119.6 731.6 107.7 765.6 106.2 787.4 116.3 781.7 90.1 815.6 64.2 796.1 52.8 682 12.6 637.1 22.7 637.1 43 557.4 43 557.4 69.3 568.1 82.6 590.9 73.4 604.5 82.6 588 90.6 587.5 102.5 587.5 102.5 598.4 111.6 612.2 107.7 624.5 118 622.4 91.3 641.3 87"/>
          <polygon class="cls-3" points="693.7 232.5 683.5 219.8 681.3 213.3 681.3 213.3 669 177.6 674.8 165.2 667.1 152.8 648.8 147 637.3 143.4 619.7 149.3 619.7 149.3 619.7 149.3 619.4 157.1 596.9 157.1 584.5 135.3 570.4 136.7 570.4 136.7 569.2 136.8 555 138.2 555 138.2 555 138.2 555 138.2 555 146.9 590.9 207.9 601.6 208.9 626.3 234.7 671.9 248.3 684.5 248.3 684.6 248.3 684.5 248.3 693.7 232.5"/>
          <polygon class="cls-3" points="648.8 147 667.2 152.8 674.8 165.2 703.2 150.7 656.4 113.3 636.6 113.3 624.5 118 624.5 118 624.5 118 624.5 118 612.2 107.7 598.4 111.6 620.5 129.9 619.7 149.3 637.3 143.4 648.8 147"/>
          <polygon class="cls-3" points="637.3 143.4 648.8 147 637.3 143.4 619.7 149.3 619.7 149.3 637.3 143.4"/>
          <polygon class="cls-3" points="742.5 240.1 742.5 226.4 742.5 226.4 742.5 226.3 742.5 226.3 742.5 226.3 755.5 226.3 775.6 207.8 771.2 189.6 761.9 184.3 762.3 175.1 762.3 175 762.3 175 777.7 164.1 788 164.1 766.5 154.3 743.5 157.6 743.5 157.6 743.5 157.6 743.5 157.6 736.3 189.1 709.7 213.6 681.3 213.3 683.6 219.8 693.7 232.6 684.6 248.3 724.3 248.3 734.8 260.2 752.2 255.6 752.2 243.8 742.5 240.1"/>
          <polygon class="cls-3" points="761.9 184.3 771.2 189.6 775.6 207.8 775.7 207.8 771.2 189.6 761.9 184.3 762.3 175 762.3 175.1 761.9 184.3"/>
          <polygon class="cls-3" points="752.2 243.7 742.5 240.1 742.5 226.4 742.5 226.4 742.5 240.1 752.2 243.8 752.2 255.6 752.2 255.6 752.2 243.7"/>
          <polygon class="cls-3" points="683.6 219.8 681.3 213.3 681.3 213.3 681.3 213.3 681.3 213.3 683.5 219.8 693.7 232.5 684.5 248.3 684.6 248.3 693.7 232.6 683.6 219.8"/>
          <polygon class="cls-3" points="624.5 118 636.6 113.2 656.4 113.2 703.2 150.6 718.5 154.8 711.5 134.3 718.6 132.2 718.6 132.2 724.3 130.6 733.2 128.1 734.5 118.8 717.2 119.6 717.2 119.6 702.4 120.2 687.1 100.1 666.3 104.1 666.2 104.1 666.2 104.1 666.3 104.1 666.3 104.1 641.3 87 622.4 91.3 624.5 118"/>
          <polygon class="cls-3" points="666.2 104.1 666.3 104.1 666.2 104.1 666.2 104.1"/>
          <polygon class="cls-3" points="624.5 118 622.4 91.3 641.3 87 641.3 87 622.4 91.3 624.5 118 624.5 118 624.5 118"/>
          <polygon class="cls-3" points="674.8 165.2 674.8 165.2 674.8 165.2 674.8 165.2 674.8 165.2 669 177.6 681.3 213.3 709.7 213.6 736.2 189.1 743.5 157.6 743.5 157.6 738.8 144.3 718.5 154.8 703.2 150.7 703.2 150.7 703.2 150.7 674.8 165.2"/>
          <polygon class="cls-3" points="669 177.6 674.8 165.2 674.8 165.2 674.8 165.2 674.8 165.2 674.8 165.2 669 177.6 681.3 213.3 681.3 213.3 669 177.6"/>
          <polygon class="cls-3" points="674.8 165.2 703.2 150.7 703.2 150.7 674.8 165.2 674.8 165.2"/>
          <polygon class="cls-3" points="736.2 189.1 709.7 213.6 681.3 213.3 681.3 213.3 709.7 213.6 736.3 189.1 743.5 157.6 743.5 157.6 743.5 157.6 736.2 189.1"/>
          <polygon class="cls-3" points="766.5 154.3 766.5 154.3 763.1 152.7 756.4 136.3 736.9 138.2 736.9 138.2 736.9 138.2 718.6 132.3 711.5 134.3 718.5 154.8 738.8 144.3 743.5 157.6 766.5 154.3 766.5 154.3"/>
          <polygon class="cls-8" points="749.68 166.1 759.26 144.97 759.26 144.97 749.68 166.1"/>
          <polygon class="cls-3" points="734.5 118.8 734.5 118.8 733.3 128.1 724.3 130.6 718.6 132.2 736.9 138.2 756.4 136.3 753.4 129 787.4 116.3 765.6 106.3 731.6 107.7 731.6 107.7 717.2 119.6 734.5 118.8 734.5 118.8"/>
          <polygon class="cls-3" points="718.6 132.2 718.6 132.2 724.3 130.6 718.6 132.2"/>
          <rect class="cls-11" x="726.25" y="110.64" height="17.3"/>
          <polygon class="cls-3" points="557.4 124.8 570.4 136.6 584.5 135.3 574.7 117.9 564 115.3 557.4 124.8 557.4 124.8"/>
          <polygon class="cls-3" points="557.4 124.8 564 115.3 564 115.3 564 115.3 539.4 104.1 529.4 106.3 529.4 119.9 529.4 119.9 548.7 124.8 557.4 124.8"/>
          <polygon class="cls-3" points="557.4 124.8 557.4 124.8 557.4 124.8 564 115.3 564 115.3 557.4 124.8"/>
          <polygon class="cls-3" points="570.4 136.7 557.4 124.8 548.7 124.8 555 138.2 569.2 136.8 570.4 136.7"/>
          <polygon class="cls-3" points="570.4 136.7 570.4 136.7 569.2 136.8 570.4 136.7"/>
          <polygon class="cls-3" points="407.9 5.9 407.9 5.9 421.9 12.3 427.4 7.7 427.4 7.7 425.4 -6.1 418.3 -3.9 418.3 -4 418.3 -3.9 407.9 -9.8 402.8 -8.6 404.1 -7.6 402.7 -1 388.3 -7.6 388.4 .9 389.8 1.3 407.9 5.9 407.9 5.9"/>
          <polygon class="cls-3" points="407.9 5.9 389.8 1.3 388.4 .9 388.4 10.6 388.4 10.6 399.3 14.2 402.3 20.4 404.6 27 421.9 12.3 407.9 5.9"/>
          <polygon class="cls-3" points="407.9 5.9 389.8 1.3 407.9 5.9 407.9 5.9"/>
          <polygon class="cls-3" points="443.7 7.7 427.4 7.7 427.4 7.7 422 12.3 421.9 12.3 421.9 12.3 421.9 12.3 404.6 27 404.6 27 404.6 27 408.2 37 440.8 42.1 440.8 42.1 440.8 42.1 440.8 42.1 461.1 37.7 449 32.8 456.3 28.1 443.7 7.7 443.7 7.7 443.7 7.7"/>
          <polygon class="cls-3" points="421.9 12.3 422 12.3 427.4 7.7 427.4 7.7 427.4 7.7 421.9 12.3"/>
          <polygon class="cls-3" points="421.9 12.3 421.9 12.3 404.6 27 404.6 27 421.9 12.3"/>
          <polygon class="cls-3" points="440.8 42.1 440.8 42.1 440.8 42.1 440.8 42.1 408.2 37 410.3 42.6 398.6 57.1 398.6 65.3 442.7 65.3 446.9 73.4 439.3 85.4 446 88.2 447.8 82.6 473.9 82.6 468.1 88.6 476.1 93.2 487 92.3 476.7 79.2 503.8 73.4 510.7 57.9 461.2 37.7 461.1 37.7 461.1 37.7 440.8 42.1"/>
          <polygon class="cls-3" points="440.8 42.1 408.2 37 440.8 42.1 440.8 42.1"/>
          <polygon class="cls-3" points="440.8 42.1 440.8 42.1 461.1 37.7 461.1 37.7 440.8 42.1 440.8 42.1"/>
          <polygon class="cls-3" points="394 -66.2 386.2 -85.1 378.8 -85.1 378.8 -85.1 333.2 -51.6 333.2 -21.8 326.9 -12 344 7.8 372.1 -17 359 -33.3 388.5 -65.5 394.3 -65.5 394.3 -65.6 394.3 -65.6 394 -66.2"/>
          <polygon class="cls-3" points="402.1 20.4 402.1 20.5 399.1 14.3 399.1 14.3 388.2 10.7 388.3 17.9 402.1 20.4 402.1 20.4"/>
          <polygon class="cls-3" points="367.5 67.6 367.5 67.6 367.5 67.6 367.5 67.6 366.3 68.6 359.1 74.5 356.3 76.8 359.4 78 359.4 78 372.6 82.9 372.6 82.9 378.3 81.9 378.3 81.9 378.3 81.9 378.3 81.9 378.3 81.9 390 79.9 390 79.9 403.9 65.4 398.4 65.4 398.4 61.9 398.4 61.9 398.4 62 367.5 67.6"/>
          <polygon class="cls-3" points="370.3 53.7 369.2 53.3 359.1 59.7 359.2 59.7 367.5 67.6 367.5 67.6 398.4 61.9 398.4 57.2 370.4 53.8 370.3 53.7"/>
          <polygon class="cls-3" points="367.5 67.6 367.5 67.6 367.5 67.6 398.4 62 398.4 61.9 367.5 67.6 367.5 67.6"/>
          <polygon class="cls-3" points="300.1 82.2 300.1 82.2 300.1 82.2 300.1 82.2 310.2 82.9 319.2 80.8 316 71 307.5 71 301.9 73.6 300.1 82.2"/>
          <polygon class="cls-3" points="338.5 59.7 338.6 59.7 359.1 59.7 369.2 53.3 369.2 53.3 369.2 53.3 357.1 48.5 349.5 45.5 349.5 45.5 349.5 45.5 331.9 51 338.5 59.7"/>
          <polygon class="cls-3" points="359.1 59.7 369.2 53.3 369.2 53.3 359.1 59.7 359.1 59.7 359.1 59.7"/>
          <polygon class="cls-3" points="200.1 154.4 204.2 154.7 204.2 154.7 204.2 154.7 204.2 154.7 208.9 115.3 193.6 112.7 193.6 112.7 193.6 112.7 192.8 141.6 200.1 154.4 200.1 154.4"/>
          <polygon class="cls-3" points="446.7 73.4 442.4 65.4 429.4 65.4 439.1 85.4 446.7 73.4"/>
          <polygon class="cls-3" points="369.3 53.3 370.3 53.7 370.4 53.8 398.4 57.2 398.4 57.2 398.4 57.2 410.1 42.6 408 37 404.4 27 402.1 20.5 402.1 20.4 388.3 17.9 388.3 17.9 388.2 17.9 373.7 18.4 370.4 15.3 349.5 20.4 347.7 20.4 349.5 45.5 357.1 48.5 369.3 53.3"/>
          <polygon class="cls-3" points="402.1 20.4 402.1 20.4 388.3 17.9 388.3 17.9 402.1 20.4"/>
          <polygon class="cls-3" points="370.4 53.8 370.3 53.7 370.4 53.8 398.4 57.2 398.4 57.2 370.4 53.8"/>
          <polygon class="cls-3" points="357.1 48.5 349.5 45.5 349.5 45.5 357.1 48.5"/>
          <polygon class="cls-3" points="402.4 100.5 402.4 100.5 433.3 96.9 442.1 99.4 445.7 88.2 439.1 85.4 439.1 85.4 429.4 65.4 429.4 65.4 429.4 65.4 403.9 65.4 403.9 65.4 390 79.9 402.4 100.5"/>
          <polygon class="cls-3" points="439.1 85.4 439.1 85.4 429.4 65.4 429.4 65.4 439.1 85.4"/>
          <polygon class="cls-3" points="296.8 52.7 296.7 52.7 296.7 52.7 305.3 57.1 305.3 57.1 305.3 57.2 301.9 73.6 307.5 71 316 71 316 71 316 71 327.3 71 343.5 66.3 338.5 59.7 338.5 59.7 338.5 59.7 338.5 59.7 331.9 51 349.5 45.5 347.6 20.4 347.6 20.4 320.8 20.1 319.6 15.3 310.2 15.3 310.2 15.3 312.1 19.9 298 28.3 297.2 43.8 297.2 43.8 297.2 43.8 297.2 43.8 297.2 43.8 297.2 44.2 297 47.8 297 47.8 297 47.8 297 47.8 296.8 52.7"/>
          <polygon class="cls-3" points="338.5 59.7 338.5 59.7 338.5 59.7 331.9 51 338.5 59.7"/>
          <polygon class="cls-3" points="319.6 15.3 319.1 13.3 322.2 -4 313.7 -4.1 307.7 9.5 310.2 15.3 319.6 15.3 319.6 15.3"/>
          <polygon class="cls-3" points="323.9 13.4 332.6 13.3 335.3 9.3 335.3 9.3 330 4.1 325.3 6 323.9 13.4"/>
          <polygon class="cls-3" points="356.2 76.8 356.3 76.8 359.1 74.5 364.5 70.1 366.3 68.6 367.5 67.6 359.1 59.7 359.1 59.7 359.1 59.7 338.6 59.7 343.5 66.3 343.5 66.3 343.5 66.3 343.5 66.3 343.5 66.3 329.1 70.5 327.3 71 316 71 319.2 80.8 336.4 76.8 336.5 76.8 336.5 76.8 336.5 76.8 336.5 76.8 356.2 76.8"/>
          <polygon class="cls-3" points="367.5 67.6 367.5 67.6 366.3 68.6 367.5 67.6 367.5 67.6 367.5 67.6"/>
          <polygon class="cls-3" points="356.3 76.8 359.1 74.5 356.3 76.8 356.3 76.8"/>
          <polygon class="cls-3" points="359.1 59.7 367.5 67.6 367.5 67.6 367.5 67.6 359.2 59.7 359.1 59.7 359.1 59.7 359.1 59.7"/>
          <polygon class="cls-3" points="329.1 70.5 343.5 66.3 343.5 66.3 327.3 71 316 71 316 71 327.3 71 329.1 70.5"/>
          <polygon class="cls-3" points="353.3 144.8 335.8 144.8 335.8 149.2 342.4 153.7 353.3 155.4 353.3 144.8"/>
          <polygon class="cls-3" points="307.5 138.1 315.8 138.1 315.8 122.6 307.5 120.2 307.5 138.1"/>
          <polygon class="cls-3" points="319.2 80.8 319.2 80.8 319.2 80.8 310.2 82.9 300.1 82.2 300.1 82.2 300.1 82.2 298.5 89.9 308.7 94.5 320.4 94.5 356.5 130.6 358.4 145.9 365 142 367.1 131 375.3 129.4 331.2 91.2 343.8 90.5 336.5 76.8 319.2 80.8 319.2 80.8"/>
          <polygon class="cls-3" points="300.1 82.2 300.1 82.2 310.2 82.9 319.2 80.8 319.2 80.8 310.2 82.9 300.1 82.2"/>
          <polygon class="cls-3" points="319.2 80.8 319.2 80.8 336.5 76.8 336.4 76.8 319.2 80.8"/>
          <polygon class="cls-3" points="317.7 107.8 311.7 107.8 311.7 115.2 315.8 116.8 317.7 107.8"/>
          <polygon class="cls-3" points="228.2 62.5 228.3 62.5 228.3 62.5 228.2 62.5"/>
          <polygon class="cls-3" points="305.3 57.1 296.7 52.7 296.7 52.7 275.7 41.7 241 62.5 228.3 62.5 228.3 67.8 243.3 75.9 245.2 102.5 267.5 116.7 274.3 107.8 306.9 108.1 307.8 94.5 308.7 94.5 298.5 89.9 305.3 57.1"/>
          <polygon class="cls-3" points="305.3 57.1 305.3 57.1 296.7 52.7 296.7 52.7 305.3 57.1"/>
          <polygon class="cls-3" points="297.2 43.8 284 36.7 275.7 41.7 292.3 50.3 297 47.8 297.2 44.2 297.2 43.8"/>
          <polygon class="cls-3" points="297.2 44.2 297 47.8 297 47.8 297.2 44.2"/>
          <polygon class="cls-3" points="298 28.3 298 28.3 284 36.7 297.2 43.8 298 28.4 298 28.3"/>
          <polygon class="cls-3" points="298 28.3 298 28.4 297.2 43.8 297.2 43.8 298 28.3"/>
          <polygon class="cls-3" points="297 47.8 292.3 50.3 292.3 50.3 296.7 52.7 297 47.8"/>
          <polygon class="cls-3" points="296.8 52.7 297 47.8 297 47.8 296.7 52.7 296.8 52.7"/>
          <polygon class="cls-3" points="238 12.5 238 12.5 238.1 23.7 230.5 27.8 237.2 37.6 223.6 50.6 241.6 47.3 260 44.4 261.1 37.7 264.9 37.7 265.7 30.2 253.8 27.7 239 -6.5 227.6 -6.8 227.6 11.5 238 12.5 238 12.5"/>
          <polygon class="cls-3" points="223.6 20.6 223.6 20.6 223.6 13.3 210.3 12.4 218 22.6 223.6 20.6"/>
          <polygon class="cls-3" points="196.9 22.3 196.8 22.3 196.9 22.3 196.9 22.3"/>
          <polygon class="cls-3" points="204.5 42.1 204.5 35.3 219 37.3 217.9 22.6 210.3 12.4 196.9 22.3 196.9 42.2 204.5 42.1"/>
          <polygon class="cls-3" points="208.9 115.3 208.9 115.3 204.2 154.7 236 157.1 267.5 116.7 245.2 102.5 193.8 102.9 193.6 112.7 208.9 115.3 208.9 115.3"/>
          <polygon class="cls-3" points="193.5 114 209 114 209 114 193.5 114"/>
          <polygon class="cls-3" points="274.7 137.7 274.7 129.2 264.9 137.7 274.7 137.7"/>
          <polygon class="cls-3" points="390.1 113.7 391.1 127.8 411.3 121.3 407.4 112.1 406.7 110.4 390.1 113.7"/>
          <polygon class="cls-3" points="385.7 107.5 385.7 107.5 385.7 107.5 390.1 113.7 406.7 110.4 402.4 100.5 390 79.9 378.3 81.9 379 85.4 379.3 87.4 379.3 87.3 381.8 101.2 382 102.5 383.7 104.7 385.7 107.5 385.7 107.5"/>
          <polygon class="cls-3" points="390 79.9 390 79.9 378.3 81.9 378.3 81.9 378.3 81.9 390 79.9 390 79.9"/>
          <polygon class="cls-3" points="402.4 100.5 402.4 100.5 402.4 100.5 390 79.9 390 79.9 402.4 100.5"/>
          <polygon class="cls-3" points="356.2 76.8 356.3 76.8 336.5 76.8 343.8 90.4 343.8 90.4 345.6 90.3 355.1 85.4 359.4 78 356.2 76.8"/>
          <polygon class="cls-3" points="356.3 76.8 356.2 76.8 359.4 78 359.4 78 359.4 78 359.4 78 356.3 76.8 356.3 76.8 356.3 76.8"/>
          <polygon class="cls-3" points="356.3 76.8 356.2 76.8 336.5 76.8 336.5 76.8 356.3 76.8 356.3 76.8"/>
          <polygon class="cls-3" points="444.6 130.4 444.6 130.4 429.6 130.3 442 155.2 498.8 158.3 554.7 146.9 554.7 138.2 548.5 124.8 529.2 119.8 451.3 122.4 444.6 130.4"/>
          <polygon class="cls-3" points="429.4 115.4 429.5 124.8 443.4 124.8 437.8 112.7 437.8 112.7 429.4 115.4"/>
          <polygon class="cls-3" points="358.8 90.1 367.4 108.6 367.4 108.6 372.4 109.9 382 102.5 381.8 101.2 379.3 87.4 358.8 90.1"/>
          <polygon class="cls-3" points="379.3 87.4 379.3 87.4 379.3 87.4 381.8 101.2 379.3 87.3 379.3 87.4"/>
          <polygon class="cls-3" points="411.3 121.3 411.3 121.3 391.1 127.8 391.1 127.8 391.1 127.8 391.1 127.8 391.1 127.8 391.1 127.8 383.6 130.2 383.6 130.2 383.6 130.2 383.6 130.2 390.1 137.6 402.4 141.1 394.9 144.3 404.9 156.8 411.1 146.9 404.1 131.6 418.1 124.8 429.5 124.8 429.4 115.4 411.3 121.3 411.3 121.3"/>
          <polygon class="cls-3" points="391.1 127.8 391.1 127.8 411.3 121.3 411.3 121.3 391.1 127.8"/>
          <polygon class="cls-3" points="379.3 87.4 379 85.4 378.3 81.9 372.6 82.9 359.4 78 355.1 85.4 355.1 85.4 355.1 85.4 345.6 90.3 348.9 90.1 364.2 107.8 367.4 108.6 358.8 90.1 358.8 90.1 358.8 90.1 379.3 87.4"/>
          <polygon class="cls-3" points="372.6 82.9 378.3 81.9 378.3 81.9 372.6 82.9 372.6 82.9 359.4 78 359.4 78 372.6 82.9"/>
          <polygon class="cls-3" points="379.3 87.4 379 85.4 379.3 87.4 379.3 87.4"/>
          <polygon class="cls-2" points="355.75 85.67 358.79 77.73 358.79 77.73 355.75 85.67"/>
          <polygon class="cls-3" points="379.3 87.4 358.8 90.1 358.8 90.1 379.3 87.4 379.3 87.4"/>
          <polygon class="cls-3" points="385.7 107.5 383.7 104.7 382.1 102.5 372.4 109.9 378.4 111.4 385.2 107.8 385.7 107.5"/>
          <polygon class="cls-3" points="385.7 107.5 383.7 104.7 385.7 107.5 385.7 107.5"/>
          <polygon class="cls-3" points="390 113.7 390.1 113.7 390.1 113.7 390.1 113.7 390 113.7 385.7 107.5 385.2 107.8 378.4 111.4 382.5 128.9 383.6 130.2 391.1 127.8 390 113.7"/>
          <polygon class="cls-3" points="390.1 113.7 390 113.7 391.1 127.8 391.1 127.8 390.1 113.7"/>
          <polygon class="cls-3" points="385.7 107.5 390 113.7 390.1 113.7 385.7 107.5 385.7 107.5"/>
          <polygon class="cls-3" points="391.1 127.8 391.1 127.8 383.6 130.2 383.6 130.2 391.1 127.8"/>
          <polygon class="cls-3" points="378.4 111.4 378.4 111.4 385.2 107.8 378.4 111.4"/>
          <polygon class="cls-3" points="402.4 100.5 406.7 110.4 406.7 110.4 407.4 112.1 411.3 121.3 429.4 115.4 429.4 115.4 429.4 115.4 429.4 115.4 437.8 112.7 437.8 112.7 442.1 99.4 433.3 97 402.4 100.5"/>
          <polygon class="cls-3" points="402.4 100.5 402.4 100.5 433.3 97 442.1 99.4 433.3 96.9 402.4 100.5"/>
          <polygon class="cls-3" points="411.3 121.3 407.4 112.1 411.3 121.3 411.3 121.3"/>
          <rect class="cls-10" x="404.51" y="99.97" height="10.8"/>
          <polygon class="cls-3" points="429.4 115.4 429.4 115.4 437.8 112.7 437.8 112.7 437.8 112.7 429.4 115.4"/>
          <polygon class="cls-3" points="411.3 121.3 411.3 121.3 429.4 115.4 429.4 115.4 411.3 121.3"/>
          <polygon class="cls-3" points="619.1 248.3 612 238.4 608.9 248.4 615 252.5 619.1 248.3"/>
          <polygon class="cls-3" points="481.7 173.6 486.3 164.7 486.3 164.7 470.1 170.7 481.7 173.6"/>
          <polygon class="cls-3" points="514.7 194.7 521.8 191.7 521.8 191.7 521.8 191.7 522.2 191.6 520.1 182.9 520.1 182.9 520.1 182.8 505.5 191.6 505.5 191.5 505.5 191.5 496.8 185.5 496.8 214.6 502.8 215.3 511.9 211.1 514.7 194.7"/>
          <polygon class="cls-3" points="578.5 316.5 606.9 301.7 609.6 300.9 626.8 296.3 626.8 296.3 646.9 291 646.9 270.1 642.1 269.5 637.8 268.9 637.8 268.9 637.8 268.9 637.8 268.9 627.5 267.4 626 267.2 619.7 255.6 606.9 247.1 606.9 247.1 606.9 247.1 590.9 220.9 590.9 220.9 583.9 220.9 583.9 220.9 578.8 214.4 578.5 214.4 572.5 214.4 572.5 214.4 565.2 214.4 552.8 207.9 521.8 191.7 514.7 194.7 512 211.1 502.9 215.3 502.8 215.3 502.8 215.3 496.7 214.6 553.3 312.8 554.4 316.5 560.3 306.4 580.3 308.9 580.3 308.9 580.3 308.9 578.5 316.5"/>
          <polygon class="cls-3" points="512 211.1 514.7 194.7 521.8 191.7 521.8 191.7 514.7 194.7 511.9 211.1 502.8 215.3 502.9 215.3 512 211.1"/>
          <polygon class="cls-3" points="572.5 214.4 578.5 214.4 578.9 214.4 583.9 220.9 590.9 220.9 582.4 207.1 576 207.1 574.4 207.1 572.5 214.4"/>
          <polygon class="cls-3" points="572.5 214.4 578.5 214.4 572.5 214.4 572.5 214.4"/>
          <polygon class="cls-3" points="522.2 191.6 522.3 192 552.8 207.9 565.1 214.3 572.5 214.4 574.4 207.1 576 207.1 590.2 207 554.7 146.9 538.5 150.3 532 175.8 532 175.8 532 175.8 520.1 182.9 522.2 191.6 522.2 191.6"/>
          <rect class="cls-9" x="521.16" y="182.93" height="8.9"/>
          <polygon class="cls-3" points="572.5 214.4 565.1 214.3 552.8 207.9 565.2 214.4 572.5 214.4 572.5 214.4 572.5 214.4 572.5 214.4"/>
          <polygon class="cls-3" points="572.5 214.4 572.5 214.4 574.4 207.1 576 207.1 574.4 207.1 572.5 214.4"/>
          <polygon class="cls-3" points="654.5 251.9 646.9 245.1 634.9 258.6 619.7 255.6 626 267.2 627.5 267.4 637.8 268.9 654.5 251.9"/>
          <polygon class="cls-3" points="637.8 268.9 627.5 267.4 637.8 268.9 637.8 268.9"/>
          <polygon class="cls-3" points="637.8 268.9 642.1 269.5 646.9 270.1 646.9 291 626.8 296.3 626.8 308.4 638 316 638 316 638 316.1 675.1 270.1 654.5 251.9 637.8 268.9"/>
          <polygon class="cls-3" points="642.1 269.5 637.8 268.9 637.8 268.9 642.1 269.5"/>
          <polygon class="cls-3" points="505.5 191.5 532 175.8 538.5 150.2 498.8 158.3 496.2 170.7 503.4 173.2 496.8 185.4 496.8 185.4 496.7 185.4 496.8 185.5 496.8 185.4 505.5 191.5"/>
          <polygon class="cls-3" points="505.5 191.5 496.8 185.4 496.8 185.5 505.5 191.5 505.5 191.5"/>
          <polygon class="cls-3" points="626.8 308.4 626.8 308.4 626.8 296.3 609.6 300.9 606.9 301.7 606.9 301.7 606.9 301.7 578.5 316.6 578.5 316.5 578.5 316.6 580.3 308.9 560.3 306.4 554.4 316.5 564.4 349.2 638 316 626.8 308.4 626.8 308.4"/>
          <polygon class="cls-3" points="609.6 300.9 626.8 296.3 626.8 296.3 609.6 300.9"/>
          <polygon class="cls-3" points="578.5 316.5 580.3 308.9 580.3 308.9 578.5 316.6 578.5 316.5"/>
          <polygon class="cls-3" points="626.8 308.4 626.8 308.4 638 316 638 316 626.8 308.4"/>
          <polygon class="cls-3" points="503.4 173.2 496.2 170.7 496.2 170.7 496.2 170.7 493.6 183.1 496.8 185.4 496.8 185.4 503.3 173.2 503.4 173.2"/>
          <polygon class="cls-3" points="503.4 173.2 496.2 170.7 496.2 170.7 503.4 173.2 503.3 173.2 496.8 185.4 496.8 185.4 503.4 173.2"/>
          <polygon class="cls-3" points="493.5 183.1 488.5 201.8 496.6 215 496.6 215 496.6 215 496.7 214.6 496.7 185.4 496.7 185.4 493.5 183.1"/>
          <polygon class="cls-3" points="566.9 587.6 563.2 613.8 557 631.3 557 631.3 557 631.3 564.7 649.5 583.1 650.3 614.4 549.8 603.2 549.8 566.9 587.6"/>
          <polygon class="cls-3" points="328.7 429 328.7 429 328.7 429 328.7 429 342.2 429 342.2 429 342.2 429 361.7 429 363.7 423.1 363.6 423.1 350 404 350 404 350 404 354.9 384.6 354.9 384.6 349.6 368.8 349.6 368.8 349.6 368.8 360.2 368.8 347.1 340.9 347.1 356.4 328.2 395.5 311.7 396.5 309.4 412.5 316.5 412.5 316.2 429 316.2 429 316.2 429 328.7 429"/>
          <polygon class="cls-3" points="342.2 429 328.7 429 328.7 440.9 328.7 440.9 328.7 441 315.9 441 315.5 460.5 331.9 482.4 331.9 463.7 331.9 463.7 353 463.7 342.2 429"/>
          <polygon class="cls-3" points="342.2 429 342.2 429 328.7 429 328.7 429 342.2 429 342.2 429 342.2 429"/>
          <polygon class="cls-3" points="328.7 440.9 328.7 429 316.2 429 315.9 441 328.7 441 328.7 440.9"/>
          <polygon class="cls-3" points="316.2 429 328.7 429 328.7 429 316.2 429"/>
          <polygon class="cls-3" points="274.2 351.7 264.9 396.6 286 399.7 286 399.7 288.9 412.5 309.4 412.5 311.7 396.5 328.2 395.5 347.1 356.4 347.1 340.9 276.4 340.9 274.2 351.7 274.2 351.7 274.2 351.7"/>
          <polygon class="cls-3" points="225.4 372.4 225.4 372.4 221.7 371.6 206.6 368.7 206.6 368.7 206.6 368.7 187.8 365 187.8 383.7 181.7 389 186.9 394.8 186.9 419.1 225.4 408 225.4 408 225.4 372.4 225.4 372.4"/>
          <polygon class="cls-3" points="181.7 389 181.7 389 181.7 389 181.7 389 181.7 389 181.7 389 181.7 389 181.7 389 176.1 382.7 173 379.1 172.8 379.3 160.7 390.8 160.6 390.7 160.6 390.8 186.9 419.1 186.9 419.1 186.9 394.8 181.7 389"/>
          <polygon class="cls-3" points="181.7 389 186.9 394.8 181.7 389 181.7 389 181.7 389"/>
          <polygon class="cls-3" points="402.4 553.4 402.4 553.4 402.4 553.4 419.1 553.4 418.6 532.3 405.3 525.8 405.3 525.8 405.3 525.8 405.3 501.5 390.3 501.5 387.3 512.2 372.4 512.7 372.4 512.7 372.4 512.7 368.5 499.3 344.7 499.5 344.7 499.4 344.7 499.4 344.7 552.4 331.1 574.8 332.3 589.3 416.1 589.3 402.4 572.3 402.4 553.4"/>
          <polygon class="cls-3" points="245.2 362.3 225.4 362.3 225.4 372.4 225.4 408 251.5 400.4 245.2 362.3 245.2 362.3"/>
          <polygon class="cls-3" points="363.7 423.1 361.7 429 361.7 429 361.7 429 342.2 429 353 463.7 331.9 463.7 331.9 482.4 340.2 493.4 360.2 484.3 381.3 449.2 384 428.8 384.7 423.1 363.7 423.1"/>
          <polygon class="cls-3" points="342.2 429 342.2 429 361.7 429 361.7 429 342.2 429 342.2 429"/>
          <polygon class="cls-3" points="353 463.7 342.2 429 342.2 429 353 463.7"/>
          <polygon class="cls-3" points="538.3 332.8 538.3 332.8 550.7 352.4 550.7 352.4 550.7 352.4 555.4 348.5 524 294.4 507.7 332.8 507.7 332.8 507.7 332.8 538.3 332.8"/>
          <polygon class="cls-3" points="173 379.1 173 379.1 160.4 365 148.1 377.2 160.6 390.7 172.8 379.3 173 379.1"/>
          <polygon class="cls-3" points="172.8 379.3 160.6 390.7 160.7 390.8 172.8 379.3"/>
          <polygon class="cls-3" points="561.9 359.6 561.9 359.6 561.9 359.6 555.5 348.5 546 356.4 554 365.3 554 365.3 561.9 359.6 561.9 359.6 561.9 359.6"/>
          <polygon class="cls-3" points="495.5 553.4 505.7 560.2 505.7 560.2 505.8 560.2 505.8 574.8 496 583.3 496 583.2 496 583.3 496 566.2 486.3 558.3 486.1 558.5 486.1 558.5 467.7 571.2 486 583.2 486 583.3 486 583.3 486 600.1 474.6 626.9 474.6 626.9 474.6 627.1 474.6 627.1 474.6 654 474.6 654 474.6 656.6 482.9 656.5 483.4 652.5 500.6 640.4 499.4 604.2 539.8 571.1 535.7 533.4 495.5 541.8 495.5 553.4"/>
          <polygon class="cls-3" points="474.6 653.9 474.6 653.9 474.6 653.9 474.6 654 474.6 654 474.6 627.1 474.6 627.1 474.6 653.9 474.6 653.9"/>
          <polygon class="cls-3" points="594.1 385.6 594.1 385.6 544.1 427.3 544.1 463.5 622.4 372.4 619.2 356.4 564.7 364.4 561.9 359.6 554 365.3 562 374.3 594.1 385.6 594.1 385.6"/>
          <polygon class="cls-3" points="392.3 646.3 392.3 646.1 392.3 646.1 392.3 596.5 392.3 596.5 432.1 596.5 427 589.3 427 589.3 427 589.3 416.1 589.3 332.3 589.3 362.2 673.5 392.2 673.5 392.2 646.2 392.3 646.3"/>
          <polygon class="cls-3" points="392.3 646.3 392.2 646.2 392.2 673.5 392.3 673.5 392.3 646.3"/>
          <polygon class="cls-3" points="509 410.4 497.4 412.1 501.4 429 501.4 429 501.4 429 501.1 430.8 499.4 443.3 493.3 454.1 530.9 478.9 544.1 463.5 544.1 463.5 544.1 463.5 544.1 427.3 544.1 427.3 544.1 427.3 558.6 415.1 516 415.1 511.2 410.1 511.1 410.1 511.1 410.1 509 410.4"/>
          <polygon class="cls-3" points="544.1 427.3 544.1 463.5 544.1 463.5 544.1 427.3 544.1 427.3"/>
          <polygon class="cls-3" points="469.2 466.2 469.1 466.2 469.2 466.2 462.9 481.7 461 486.5 480.5 514.1 480.5 514.1 484.5 519.7 486.1 521.9 486.1 521.9 486.1 521.9 495.5 521.9 495.5 521.9 495.5 541.7 535.7 533.4 535.7 533.4 535.8 533.4 530.9 479 493.3 454.2 493.3 454.2 493.3 454.1 490.9 458.3 477.4 458.3 480.9 452.3 474.8 452.3 472.1 459 469.2 466.2 469.2 466.2"/>
          <polygon class="cls-3" points="495.5 541.7 495.5 541.8 535.7 533.4 535.7 533.4 495.5 541.7"/>
          <polygon class="cls-3" points="197.2 252.6 197.2 252.6 197.2 252.5 218.7 252.5 185.6 228.2 185.6 239.5 185.6 239.5 185.5 239.5 163.3 239.5 163.3 265.1 155 277.6 127.5 277.6 127.5 277.6 127.5 277.6 126.5 306.4 160.3 330.7 160.3 330.7 160.3 330.8 160.3 322 160.4 322 201.1 322 197.2 252.6"/>
          <polygon class="cls-3" points="459 468.3 469.2 466.2 472.1 459 474.8 452.3 462.9 452.3 459 468.3"/>
          <polygon class="cls-3" points="469.2 466.2 472.1 459 469.2 466.2 469.2 466.2"/>
          <polygon class="cls-3" points="458 472.8 456.3 479.9 456.3 480 456.3 480 461 486.5 462.9 481.7 469.1 466.2 459 468.3 458 472.8"/>
          <polygon class="cls-3" points="469.2 466.2 469.1 466.2 462.9 481.7 469.2 466.2"/>
          <polygon class="cls-3" points="173 379.1 173 379.1 176.1 382.7 181.7 389 187.8 383.7 187.8 364.9 184.8 351.6 169.6 351.6 169.6 351.6 146 351.6 146 351.6 146 351.6 135 363.1 148.1 377.2 160.4 365 160.4 365 160.4 365 173 379.1"/>
          <polygon class="cls-3" points="181.7 389 181.7 389 176.1 382.7 181.7 389"/>
          <polygon class="cls-3" points="173 379.1 173 379.1 160.4 365 160.4 365 173 379.1 173 379.1"/>
          <polygon class="cls-3" points="184.8 351.6 184.9 351.6 187.8 364.9 206.6 368.7 206.6 349.8 206.6 349.8 246.3 333.7 246.3 333.7 278.7 320.6 278.7 296.8 278.7 296.8 278.7 296.8 263.8 285.8 218.7 252.5 218.7 252.5 218.7 252.6 197.2 252.6 201.1 322 201.1 322 201.1 322 201.1 322 160.4 322 160.4 330.8 169.6 351.6 184.8 351.6 184.8 351.6"/>
          <polygon class="cls-3" points="197.2 252.5 218.6 252.5 218.6 252.5 197.2 252.5"/>
          <polygon class="cls-3" points="184.8 351.6 184.8 351.6 169.6 351.6 169.6 351.6 184.8 351.6"/>
          <polygon class="cls-3" points="441.7 589.3 467.7 571.2 467.7 571.2 486 558.4 486 558.4 486 521.9 484.5 519.7 480.5 514.1 456.3 517.8 451.9 537.4 466.4 543.2 466.4 543.2 466.5 543.3 461.4 553.4 418.6 532.3 419.2 553.4 419.1 553.4 419.1 553.4 402.4 553.4 402.4 572.3 416.1 589.3 416.1 589.3 416.1 589.3 427 589.3 441.7 589.3"/>
          <polygon class="cls-3" points="419.1 553.4 419.2 553.4 418.6 532.3 418.6 532.3 419.1 553.4"/>
          <polygon class="cls-3" points="402.4 572.3 402.4 553.4 402.4 553.4 402.4 572.3 416.1 589.3 416.1 589.3 402.4 572.3"/>
          <polygon class="cls-3" points="486 558.4 486 558.4 467.7 571.2 467.7 571.2 486.1 558.5 486.1 558.5 486 558.5 486 558.4"/>
          <polygon class="cls-3" points="486 521.9 486.1 521.9 486.1 521.9 484.5 519.7 486 521.9 486 521.9"/>
          <polygon class="cls-3" points="453.8 626.9 432.1 596.5 392.3 596.5 392.3 646.1 404.4 660 453.8 626.9"/>
          <polygon class="cls-3" points="206.6 368.7 221.7 371.6 225.4 372.4 225.4 362.3 225.4 362.3 225.4 362.3 245.2 362.3 245.2 362.3 245.2 362.3 245.2 362.3 254.5 358.9 254.5 358.9 254.5 358.9 258.1 357.6 268.3 353.8 246.3 333.7 206.6 349.8 206.6 368.7 206.6 368.7"/>
          <polygon class="cls-3" points="225.4 372.4 225.4 372.4 221.7 371.6 225.4 372.4"/>
          <polygon class="cls-3" points="225.4 362.3 225.4 362.3 245.2 362.3 245.2 362.3 245.2 362.3 225.4 362.3"/>
          <polygon class="cls-3" points="486.1 521.9 486.1 558.4 486.3 558.3 496 566.2 496 566.2 496 566.2 496 583.2 505.7 574.8 505.7 560.2 495.5 553.4 495.5 553.4 495.5 553.4 495.5 541.7 495.5 541.7 495.5 541.7 495.5 541.7 495.5 521.9 486.1 521.9 486.1 521.9"/>
          <polygon class="cls-3" points="495.5 541.7 495.5 541.7 495.5 553.4 495.5 553.4 495.5 541.8 495.5 541.7 495.5 541.7 495.5 541.7"/>
          <polygon class="cls-3" points="496 583.2 496 583.3 505.8 574.8 505.8 560.2 505.7 560.2 505.7 574.8 496 583.2"/>
          <polygon class="cls-3" points="486.3 558.3 486.1 558.4 486.1 558.5 486.3 558.3 496 566.2 496 566.2 486.3 558.3"/>
          <polygon class="cls-3" points="486.1 521.9 495.5 521.9 495.5 521.9 486.1 521.9 486.1 521.9 486.1 521.9 486.1 521.9"/>
          <polygon class="cls-7" points="473.16 553.09 498.97 527.29 498.97 527.29 473.16 553.09"/>
          <polygon class="cls-3" points="511.2 410.1 511.2 410.1 511.2 410.1 516 415.1 558.6 415.1 558.6 415.1 558.6 415.1 594.1 385.6 562 374.3 562 374.3 562 374.3 546 356.4 550.7 352.4 538.3 332.8 538.3 332.8 507.7 332.8 486.1 383.9 511.2 410.1 511.2 410.1 511.2 410.1"/>
          <polygon class="cls-3" points="538.3 332.8 538.3 332.8 550.7 352.4 550.7 352.4 538.3 332.8"/>
          <polygon class="cls-3" points="507.7 332.8 538.3 332.8 538.3 332.8 507.7 332.8"/>
          <polygon class="cls-3" points="594.1 385.6 594.1 385.6 562 374.3 562 374.3 594.1 385.6"/>
          <polygon class="cls-3" points="558.6 415.1 558.6 415.1 516 415.1 511.2 410.1 511.2 410.1 516 415.1 558.6 415.1"/>
          <polygon class="cls-3" points="497.4 412.1 480.7 414.4 471.6 415.7 471.6 415.7 462.9 452.3 474.8 452.3 474.8 452.3 480.9 452.3 486 443.3 499.4 443.3 501.1 430.8 501.4 429 497.4 412.1"/>
          <polygon class="cls-3" points="501.4 429 501.1 430.8 501.4 429 501.4 429"/>
          <polygon class="cls-3" points="462.9 452.3 462.9 452.3 474.8 452.3 474.8 452.3 462.9 452.3"/>
          <polygon class="cls-3" points="363 308.2 359.6 284.8 356.7 265.2 325.3 265.2 278.7 296.8 278.7 296.8 278.7 320.6 246.3 333.7 268.4 353.8 274.2 351.7 276.4 340.9 347.1 340.9 348.7 337.6 363 308.2 363 308.2"/>
          <polygon class="cls-3" points="278.7 320.6 246.3 333.7 246.3 333.7 278.7 320.6 278.7 296.8 278.7 296.8 278.7 296.8 278.7 320.6"/>
          <polygon class="cls-3" points="163.2 265.1 163.2 239.5 163.3 239.5 185.5 239.5 185.5 228.1 185.6 228.2 185.6 228.1 185.6 228.1 185.6 224 181.7 224 181.7 224 181.7 224 161 224 161.1 224 161 224 127.9 267.2 127.5 277.6 155 277.6 163.2 265.1"/>
          <polygon class="cls-3" points="163.2 265.1 155 277.6 163.3 265.1 163.3 239.5 163.2 239.5 163.2 265.1"/>
          <polygon class="cls-3" points="185.5 239.5 185.6 239.5 185.6 239.5 185.6 228.2 185.5 228.1 185.5 239.5"/>
          <polygon class="cls-3" points="126.5 306.4 126.5 306.4 125.5 334.4 125.5 334.4 147.7 340.9 147.7 340.9 147.7 340.9 125.2 340.9 125.3 340.9 125.2 340.9 124.8 351.6 169.6 351.6 160.3 330.7 126.5 306.4 126.5 306.4"/>
          <polygon class="cls-3" points="126.5 306.4 126.5 306.4 160.3 330.7 160.3 330.7 126.5 306.4"/>
          <polygon class="cls-3" points="125.5 334.4 125.3 340.9 147.7 340.9 125.5 334.4"/>
          <polygon class="cls-3" points="147.7 340.9 147.7 340.9 125.3 340.9 125.2 340.9 147.7 340.9"/>
          <polygon class="cls-3" points="349.6 368.8 354.9 384.6 407.7 359.7 407.7 332.5 407.7 332.5 407.7 332.5 419.4 320.9 420.6 294.5 374.8 265.1 356.8 265.1 359.6 284.8 363 308.2 348.7 337.6 347.1 340.9 360.2 368.8 360.2 368.8 360.2 368.8 349.6 368.8"/>
          <polygon class="cls-3" points="349.6 368.8 360.2 368.8 360.2 368.8 349.6 368.8 349.6 368.8"/>
          <polygon class="cls-3" points="359.6 284.8 363 308.2 363 308.2 348.7 337.6 363 308.2 359.6 284.8"/>
          <polygon class="cls-3" points="425 193.2 425.1 193.2 425.1 193.2 398.4 189.6 387.4 206.1 363.1 201.2 363.1 201.2 353.5 189.6 332.8 184.6 332.8 184.6 332.9 184.6 313.7 205.3 326.1 265.1 356.8 265.1 356.8 265.1 374.8 265.1 420.6 294.5 421.6 270.1 421.7 270.1 421.7 270.1 421.7 270.1 425 193.2"/>
          <polygon class="cls-3" points="420.6 294.5 420.6 294.5 374.8 265.1 356.8 265.1 356.8 265.1 374.8 265.1 420.6 294.5"/>
          <polygon class="cls-3" points="185.6 224 185.6 220.7 185.6 220.7 185.6 220.7 240.9 190.5 240.9 168.9 240.9 168.9 200.2 173.1 161.1 224 181.7 224 185.6 224"/>
          <polygon class="cls-3" points="181.7 224 181.7 224 181.7 224 161.1 224 161 224 181.7 224"/>
          <polygon class="cls-3" points="240.9 190.5 240.9 190.5 240.9 190.5 185.6 220.7 185.6 224 185.6 224 185.6 228.1 263.8 285.8 278.7 296.8 325.3 265.1 326.1 265.1 313.6 205.2 313.6 205.2 303.4 155.9 276.6 155.2 240.9 168.8 240.9 168.9 240.9 168.8 240.9 190.5"/>
          <polygon class="cls-3" points="263.8 285.8 278.7 296.8 278.7 296.8 263.8 285.8"/>
          <polygon class="cls-3" points="185.6 224 185.6 224 185.6 228.1 185.6 228.1 185.6 224 185.6 224"/>
          <polygon class="cls-3" points="313.6 205.2 313.6 205.2 326.1 265.1 326.1 265.1 313.7 205.3 313.7 205.3 313.6 205.2"/>
          <polygon class="cls-3" points="240.9 190.5 240.9 190.5 240.9 168.8 240.9 168.9 240.9 168.9 240.9 190.5"/>
          <rect class="cls-5" x="185.66" y="220.48" height="3.3"/>
          <polygon class="cls-3" points="332.8 184.6 325.3 182.8 326.3 156.6 303.4 155.9 303.4 155.9 313.6 205.2 332.8 184.6"/>
          <polygon class="cls-3" points="313.7 205.3 332.9 184.6 332.8 184.6 313.6 205.2 313.7 205.3"/>
          <polygon class="cls-3" points="313.6 205.2 303.4 155.9 313.6 205.2 313.6 205.2"/>
          <polygon class="cls-3" points="313.6 205.2 313.7 205.3 313.7 205.3 313.6 205.2 313.6 205.2"/>
          <polygon class="cls-3" points="441.7 589.3 427 589.3 432.2 596.5 432.1 596.5 432.1 596.5 432.2 596.5 453.8 626.9 453.8 626.9 453.8 626.9 474.6 626.9 474.6 626.9 486 600.1 486 583.3 467.7 571.3 441.7 589.3"/>
          <polygon class="cls-3" points="474.6 626.9 474.6 626.9 474.6 626.9 486 600.1 486 583.3 486 583.3 486 600.1 474.6 626.9"/>
          <polygon class="cls-3" points="427 589.3 427 589.3 432.1 596.5 432.2 596.5 427 589.3"/>
          <polygon class="cls-3" points="453.8 626.9 432.2 596.5 432.1 596.5 453.8 626.9 453.8 626.9"/>
          <polygon class="cls-3" points="439.3 682 439.3 682.1 447.6 676.8 456.3 676.8 456.3 685.1 456.3 685.1 456.3 676.6 447.6 676.6 439.3 682"/>
          <polygon class="cls-3" points="447.6 676.8 439.3 682.1 439.3 691.7 450 691.7 456.3 685.1 456.3 676.8 447.6 676.8"/>
          <polygon class="cls-3" points="474.6 654 466.4 654 466.4 661.3 474.6 666.2 474.6 656.8 474.6 656.8 474.6 656.8 474.6 656.6 474.6 656.6 474.6 654"/>
          <polygon class="cls-3" points="466.4 653.9 466.4 661.3 466.4 661.3 466.4 654 474.6 654 474.6 653.9 466.4 653.9"/>
          <rect class="cls-3" x="474.6" y="654" height="2.6"/>
          <rect class="cls-3" x="474.6" y="653.9" height=".2"/>
          <polygon class="cls-3" points="488.5 201.8 488.5 201.8 425.1 193.2 421.7 270.1 491.2 270.1 505.2 262.1 476.4 212.6 492.1 225.4 496.4 215.4 496.4 215.4 496.6 215 488.5 201.8 488.5 201.8"/>
          <rect class="cls-4" x="492.57" y="200.79" height="15.4"/>
          <polygon class="cls-3" points="425 193.2 421.7 270.1 421.7 270.1 425.1 193.2 425 193.2"/>
          <polygon class="cls-3" points="420.6 294.5 419.4 320.9 419.4 320.9 419.4 320.9 407.7 332.5 407.7 359.7 407.7 359.7 407.7 359.7 449.3 407.6 449.3 407.6 449.3 407.6 449.3 407.6 471.5 415.7 480.7 414.4 509 410.4 511.1 410.1 486 383.9 507.7 332.8 523.9 294.4 505.2 262.1 491.2 270.1 421.7 270.1 420.6 294.5 420.6 294.5"/>
          <polygon class="cls-3" points="511.1 410.1 511.1 410.1 509 410.4 511.1 410.1"/>
          <polygon class="cls-3" points="480.7 414.4 471.5 415.7 471.6 415.7 480.7 414.4"/>
          <polygon class="cls-3" points="407.7 359.7 407.7 359.7 407.7 332.5 407.7 332.5 407.7 359.7"/>
          <polygon class="cls-3" points="420.6 294.5 419.4 320.9 419.4 320.9 420.6 294.5 420.6 294.5 420.6 294.6 420.6 294.5"/>
          <polygon class="cls-3" points="420.6 294.5 420.6 294.5 421.7 270.1 421.6 270.1 420.6 294.5"/>
          <polygon class="cls-3" points="420.6 294.6 420.6 294.5 420.6 294.5 420.6 294.5 420.6 294.6"/>
          <polygon class="cls-3" points="368.5 499.3 368.5 499.3 372.4 512.7 387.3 512.2 390.3 501.5 405.3 501.5 405.3 501.5 405.3 501.5 405.3 525.8 418.6 532.3 418.6 532.3 418.6 532.3 418.6 532.3 418.6 532.3 418.6 532.3 461.4 553.4 466.4 543.2 451.9 537.4 451.9 537.4 451.9 537.4 451.9 537.4 456.3 517.8 480.5 514.1 480.5 514.1 480.5 514.1 460.9 486.6 456.3 480 456.3 479.9 456.3 479.9 458 472.8 459 468.3 459 468.3 459 468.3 459 468.3 462.8 452.3 462.8 452.3 471.5 415.7 449.3 407.6 386.4 409.3 386.4 409.3 384.7 423.1 384.7 423.1 384 428.8 381.3 449.3 360.3 484.3 340.2 493.5 344.7 499.4 368.5 499.3 368.5 499.3"/>
          <polygon class="cls-3" points="460.9 486.5 460.9 486.6 461 486.5 461 486.5 460.9 486.5"/>
          <polygon class="cls-3" points="368.5 499.3 368.5 499.3 344.7 499.4 344.7 499.5 368.5 499.3"/>
          <polygon class="cls-3" points="390.3 501.5 387.3 512.2 372.4 512.7 372.4 512.7 387.3 512.2 390.3 501.5 405.3 501.5 405.3 501.5 390.3 501.5"/>
          <polygon class="cls-3" points="418.6 532.3 405.3 525.8 405.3 525.8 418.6 532.3 418.6 532.3 418.6 532.3"/>
          <polygon class="cls-3" points="384.7 423.1 384 428.8 384.7 423.1 384.7 423.1"/>
          <polygon class="cls-3" points="480.5 514.1 480.5 514.1 461 486.5 460.9 486.6 480.5 514.1"/>
          <polygon class="cls-3" points="462.8 452.3 459 468.3 459 468.3 462.9 452.3 462.8 452.3 462.8 452.3"/>
          <polygon class="cls-3" points="459 468.3 458 472.8 459 468.3 459 468.3"/>
          <polygon class="cls-3" points="461 486.5 456.3 480 456.3 480 456.3 479.9 456.3 480 460.9 486.6 460.9 486.5 461 486.5"/>
          <polygon class="cls-3" points="418.6 532.3 418.6 532.3 461.4 553.4 466.5 543.3 466.4 543.2 461.4 553.4 418.6 532.3"/>
          <polygon class="cls-3" points="456.3 517.8 451.9 537.4 451.9 537.4 451.9 537.4 456.3 517.8 480.5 514.1 480.5 514.1 456.3 517.8"/>
          <polygon class="cls-3" points="471.5 415.7 462.8 452.3 462.8 452.3 462.8 452.3 462.9 452.3 471.6 415.7 471.6 415.7 471.5 415.7 471.5 415.7"/>
          <polygon class="cls-3" points="462.8 452.3 462.8 452.3 462.9 452.3 462.9 452.3 462.8 452.3 462.8 452.3"/>
          <polygon class="cls-3" points="471.5 415.7 471.5 415.7 449.3 407.6 449.3 407.6 471.5 415.7 471.5 415.7"/>
          <polygon class="cls-3" points="471.5 415.7 471.5 415.7 471.6 415.7 471.5 415.7 471.5 415.7 471.5 415.7"/>
          <polygon class="cls-3" points="354.9 384.6 354.9 384.6 350 404 350 404 350 404 363.6 423.1 363.7 423.1 363.7 423.1 384.7 423.1 386.4 409.3 386.4 409.3 449.3 407.6 449.3 407.6 407.7 359.7 354.9 384.6 354.9 384.6"/>
          <polygon class="cls-3" points="354.9 384.6 354.9 384.6 354.9 384.6 350 404 350 404 354.9 384.6 354.9 384.6"/>
          <polygon class="cls-3" points="363.7 423.1 363.7 423.1 384.7 423.1 384.7 423.1 363.7 423.1"/>
          <polygon class="cls-3" points="449.3 407.6 449.3 407.6 407.7 359.7 449.3 407.6 449.3 407.6"/>
          <polygon class="cls-3" points="384.7 423.1 384.7 423.1 384.7 423.1 386.4 409.3 384.7 423.1 384.7 423.1"/>
          <polygon class="cls-3" points="254.5 358.9 260.9 397.7 264.9 396.6 274.1 351.7 258.1 357.6 254.5 358.9"/>
          <polygon class="cls-3" points="254.5 358.9 258.1 357.6 254.5 358.9 254.5 358.9"/>
          <polygon class="cls-3" points="245.2 362.3 251.5 400.4 251.5 400.4 251.5 400.4 251.5 400.4 260.9 397.7 254.5 358.9 245.2 362.3"/>
          <polygon class="cls-3" points="245.2 362.3 245.2 362.3 254.5 358.9 254.5 358.9 245.2 362.3"/>
          <polygon class="cls-3" points="146 351.6 124.9 351.6 124.8 352.1 135 363.1 135.1 363.1 146 351.6"/>
          <polygon class="cls-3" points="146 351.6 135.1 363.1 135 363.1 146 351.6 146 351.6"/>
        </g>
        <g id="Group_344" data-name="Group 344">
          <path id="Path_306" data-name="Path 306" class="cls-6" d="M496.9,185.7l6.6-12.2-7.2-2.5-2.6,12.4,3.2,2.3h0Z"/>
          <path id="Path_307" data-name="Path 307" class="cls-13" d="M538.7,150.5l-6.5,25.5-11.8,7.1,2.2,9.1,42.9,22.4h7.4l1.8-7.3h15.8c0-.1-35.4-60.2-35.4-60.2l-16.3,3.3h0l-.1.1Z"/>
          <path id="Path_310" data-name="Path 310" class="cls-1" d="M497,185.7v29.2l6.1.7,9.1-4.2,2.8-16.4,7.1-3,.4-.2-2.1-8.7-14.6,8.7-8.8-6.1h0Z"/>
          <path id="Path_312" data-name="Path 312" class="cls-6" d="M607.1,247.4l-16-26.2h-7l-5-6.5h-13.7l-43.3-22.7-7.1,3-2.8,16.4-9.1,4.2-6.1-.7,56.5,98.2,1.1,3.7,5.9-10.1,20.1,2.5-1.8,7.6,28.4-14.9,40-10.7v-20.8l-20.8-2.9-6.3-11.6-12.8-8.5h-.2Z"/>
          <path id="Path_313" data-name="Path 313" class="cls-13" d="M635.1,258.8l-15.2-3,6.3,11.6,11.8,1.7,16.7-17-7.6-6.8-12,13.5h0Z"/>
          <path id="Path_316" data-name="Path 316" class="cls-6" d="M241.1,169.1v21.7l-55.3,30.2v7.4l93.1,68.7,46.6-31.6h.8l-22.7-109.2-26.8-.8-35.7,13.7h0v-.1Z"/>
          <path id="Path_318" data-name="Path 318" class="cls-6" d="M609.1,248.7l6.1,4.1,4-4.1-7-9.9-3.1,10h0v-.1Z"/>
          <polygon class="cls-6" points="200.3 173.2 161.23 224.3 161.2 224.3 128 267.5 127.6 277.9 127.7 277.9 155.2 277.9 163.5 265.4 163.5 239.8 185.8 239.8 185.8 224.3 185.78 224.3 185.8 220.9 241.1 190.7 241.1 169 200.3 173.2"/>
          <path id="Path_323" data-name="Path 323" class="cls-13" d="M125.7,334.6l22.3,6.5h-22.5l-.4,10.7h44.7l-9.2-20.9-33.9-24.4-1,28h0v.1Z"/>
          <path id="Path_326" data-name="Path 326" class="cls-6" d="M201.3,322.3h-40.8v8.7l9.2,20.9h15.3l2.9,13.3,18.8,3.7v-18.8l72.2-29.2v-23.8l-60.1-44.2h-21.5l3.9,69.5h0l.1-.1Z"/>
          <path id="Path_328" data-name="Path 328" class="cls-6" d="M181.9,389.2l5.2,5.8v24.3l38.5-11.1v-35.6l-37.6-7.4v18.7l-6.1,5.3h0Z"/>
          <path id="Path_330" data-name="Path 330" class="cls-6" d="M206.8,368.9l18.8,3.7v-10.1h19.9l23.1-8.5-22-20-39.7,16.1v18.9h0l-.1-.1Z"/>
          <path id="Path_332" data-name="Path 332" class="cls-6" d="M251.7,400.7l-6.2-38.1h-19.9v45.7l26.1-7.5h0v-.1Z"/>
          <path id="Path_334" data-name="Path 334" class="cls-6" d="M254.7,359.1l-9.2,3.4,6.2,38.1,9.4-2.7-6.5-38.8h.1Z"/>
          <path id="Path_336" data-name="Path 336" class="cls-6" d="M274.4,351.9l-19.7,7.2,6.5,38.8,4-1.1,9.3-44.9h-.1Z"/>
          <path id="Path_338" data-name="Path 338" class="cls-6" d="M278.9,297v23.8l-32.4,13.1,22.1,20.1,5.8-2.1,2.2-10.8h70.7l16-32.7-6.3-43.1h-31.4l-46.6,31.6h0l-.1.1Z"/>
          <path id="Path_340" data-name="Path 340" class="cls-6" d="M328.9,441.2h-12.8l-.4,19.6,16.4,21.9v-18.8h21l-10.8-34.7h-13.5v12h.1Z"/>
          <path id="Path_342" data-name="Path 342" class="cls-6" d="M392.4,646.3l12.1,14,49.4-33.1-21.6-30.4h-39.9v49.5h0Z"/>
          <path id="Path_344" data-name="Path 344" class="cls-6" d="M495.7,542v11.7l10.2,6.8v14.5l-9.7,8.5v-17l-9.7-8-.3.2-18.3,12.8,18.4,12v16.8l-11.5,26.8v29.7h8.3c0-.1.5-4.2.5-4.2l17.2-12-1.3-36.2,40.4-33.1-4-37.8-40.2,8.3h0v.2Z"/>
          <path id="Path_346" data-name="Path 346" class="cls-6" d="M474.8,654.1h-8.1v7.5l8.1,4.9v-12.3h0v-.1Z"/>
          <path id="Path_347" data-name="Path 347" class="cls-13" d="M474.8,657h0ZM454,627.3l-49.4,33.1-12.2-14v27.4h-30l17.4,47.8h57.2l44-51,2-13.8h-8.3v9.7l-8.1-4.9v-7.5h8.1v-27h-20.8l.1.2Z"/>
        </g>
      </g>
      <path id="Rectangle_459" data-name="Rectangle 459" class="cls-12" d="M-1.2-1h897.6c21.2,0,38.4,17.2,38.4,38.4v691.2c0,21.2-17.2,38.4-38.4,38.4H-1.2V-1h0Z"/>
    </g>
  </g>
  <g id="Layer_2" data-name="Layer 2">
    <path class="cls-14" d="M139.6,328.7s-10.3-8-10.3-14.5,5.3-10,10.3-10,10,4.2,10,10.2-8,12.3-10,14.2v.1Z"/>
    <path class="cls-14" d="M229.9,313.3s-10.3-8-10.3-14.5,5.3-10,10.3-10,10,4.2,10,10.2-8,12.3-10,14.2v.1Z"/>
    <path class="cls-14" d="M267.5,236.1s-10.3-8-10.3-14.5,5.3-9.9,10.3-9.9,10,4.2,10,10.2-8,12.3-10,14.2Z"/>
    <path class="cls-14" d="M196.4,200.5s-10.3-8-10.3-14.5,5.3-9.9,10.3-9.9,10,4.2,10,10.2-8,12.3-10,14.2Z"/>
    <path class="cls-14" d="M234.4,350.5s-10.3-8-10.3-14.5,5.3-10,10.3-10,10,4.2,10,10.2-8,12.3-10,14.2v.1Z"/>
    <path class="cls-14" d="M267.5,360.3s-10.3-8-10.3-14.5,5.3-10,10.3-10,10,4.2,10,10.2-8,12.3-10,14.2v.1Z"/>
    <path class="cls-14" d="M252.8,377.8s-10.3-8-10.3-14.5,5.3-10,10.3-10,10,4.2,10,10.2-8,12.3-10,14.2h0v.1Z"/>
    <path class="cls-14" d="M237.2,395s-10.3-8-10.3-14.5,5.3-10,10.3-10,10,4.2,10,10.2-8,12.3-10,14.2v.1Z"/>
    <path class="cls-14" d="M206.2,399.9s-10.3-8-10.3-14.5,5.3-10,10.3-10,10,4.2,10,10.2-8,12.3-10,14.2v.1Z"/>
    <path class="cls-14" d="M330.8,450.1s-10.3-8-10.3-14.5,5.3-10,10.3-10,10,4.2,10,10.2-8,12.3-10,14.2v.1Z"/>
    <path class="cls-14" d="M414.1,627.2s-10.3-8-10.3-14.5,5.3-10,10.3-10,10,4.2,10,10.2-8,12.3-10,14.2v.1Z"/>
    <path class="cls-14" d="M471.4,658.8s-10.3-8-10.3-14.5,5.3-10,10.3-10,10,4.2,10,10.2-8,12.3-10,14.2h0v.1Z"/>
    <path class="cls-14" d="M424.5,698.3s-10.3-8-10.3-14.5,5.3-10,10.3-10,10,4.2,10,10.2-8,12.3-10,14.2h0v.1Z"/>
    <path class="cls-14" d="M513.7,575.5s-10.3-8-10.3-14.5,5.3-10,10.3-10,10,4.2,10,10.2-8,12.3-10,14.2v.1Z"/>
    <path class="cls-14" d="M498.7,176.4s-10.3-8-10.3-14.5,5.3-9.9,10.3-9.9,10,4.2,10,10.2-8,12.3-10,14.2Z"/>
    <path class="cls-14" d="M551,189.9s-10.3-8-10.3-14.5,5.3-9.9,10.3-9.9,10,4.2,10,10.2-8,12.3-10,14.2Z"/>
    <path class="cls-14" d="M560.4,259.8s-10.3-8-10.3-14.5,5.3-9.9,10.3-9.9,10,4.2,10,10.2-8,12.3-10,14.2Z"/>
    <path class="cls-14" d="M612.7,245.9s-10.3-8-10.3-14.5,5.3-9.9,10.3-9.9,10,4.2,10,10.2-8,12.3-10,14.2Z"/>
    <path class="cls-14" d="M640.8,257.7s-10.3-8-10.3-14.5,5.3-9.9,10.3-9.9,10,4.2,10,10.2-8,12.3-10,14.2Z"/>
    <path class="cls-14" d="M325.1,313.3s-10.3-8-10.3-14.5,5.3-10,10.3-10,10,4.2,10,10.2-8,12.3-10,14.2v.1Z"/>
  </g>
</svg>