<?xml version="1.0" encoding="UTF-8"?>
<svg id="Layer_2" data-name="Layer 2" xmlns="http://www.w3.org/2000/svg" viewBox="0 0 41.72 42">
  <defs>
    <style>
      .cls-1 {
        fill: #006b4d;
        stroke-width: 0px;
      }
    </style>
  </defs>
  <path class="cls-1" d="M19.21,4.45l1.6-2.26s8.25,10.69,9.43,12.71c0,0,4.5,6.43,4.5,11.28s-4.06,13.63-13.98,13.63-13.79-8.63-13.79-13.87,5-11.9,5-11.9c0,0,4.59-6.56,5.05-6.77l-.49,4.6s-7.2,8.46-7.2,14.08,4.52,11.4,11.5,11.4,11.45-5.88,11.45-11.34-7.07-14.44-8.92-16.36c-.02-.02-.06-.01-.07.02l-1.71,5.96c-.02.07.05.13.12.11l2.56-.89c.06-.02.12.03.1.09l-2.31,8.69c-.02.07.05.14.12.12l2.67-.88c.06-.02.12.05.08.1l-6.94,11.42,1.62-8.66c.01-.07-.06-.12-.12-.1l-2.01.84c-.06.03-.13-.03-.12-.1l1.61-8.23c.02-.09-.08-.17-.16-.13l-2,.88,2.39-14.44Z"/>
</svg>