<?xml version="1.0" encoding="UTF-8"?>
<svg id="Layer_1" data-name="Layer 1" xmlns="http://www.w3.org/2000/svg" viewBox="0 0 17.56 23.79">
  <defs>
    <style>
      .cls-1 {
        fill: #fff;
        stroke-width: 0px;
      }
    </style>
  </defs>
  <path class="cls-1" d="M7.74,1.43l1.01-1.43s5.22,6.76,5.96,8.04c0,0,2.85,4.07,2.85,7.13s-2.57,8.62-8.84,8.62S0,18.34,0,15.02s3.16-7.52,3.16-7.52c0,0,2.9-4.15,3.19-4.28l-.31,2.91S1.49,11.48,1.49,15.03s2.86,7.21,7.27,7.21,7.24-3.72,7.24-7.17-4.47-9.13-5.64-10.35c-.01-.01-.04,0-.04.01l-1.08,3.77s.03.08.07.07l1.62-.56s.07.02.06.06l-1.46,5.5s.03.09.08.07l1.69-.56s.07.03.05.07l-4.39,7.22,1.03-5.48s-.04-.08-.08-.06l-1.27.53s-.08-.02-.08-.06l1.02-5.21c.01-.06-.05-.11-.1-.08l-1.27.56L7.74,1.43Z"/>
</svg>